<mxfile host="app.diagrams.net" modified="2023-09-12T08:07:20.977Z" agent="Mozilla/5.0 (Windows NT 10.0; Win64; x64; rv:104.0) Gecko/20100101 Firefox/104.0" etag="E6F1NPCnx5t1CitfIbJP" version="21.7.4" type="github">
  <diagram name="Page-1" id="7ICM5WPAk2mSWviyt6Q3">
    <mxGraphModel dx="1434" dy="792" grid="1" gridSize="10" guides="1" tooltips="1" connect="1" arrows="1" fold="1" page="1" pageScale="1" pageWidth="850" pageHeight="1100" math="0" shadow="0">
      <root>
        <mxCell id="0" />
        <mxCell id="1" parent="0" />
        <mxCell id="u-ooSULFDvHZU3v19UTf-3" style="edgeStyle=orthogonalEdgeStyle;rounded=0;orthogonalLoop=1;jettySize=auto;html=1;exitX=0.5;exitY=1;exitDx=0;exitDy=0;entryX=0.5;entryY=0;entryDx=0;entryDy=0;" edge="1" parent="1" source="u-ooSULFDvHZU3v19UTf-1" target="u-ooSULFDvHZU3v19UTf-2">
          <mxGeometry relative="1" as="geometry" />
        </mxCell>
        <mxCell id="u-ooSULFDvHZU3v19UTf-1" value="START" style="ellipse;whiteSpace=wrap;html=1;aspect=fixed;" vertex="1" parent="1">
          <mxGeometry x="385" y="20" width="80" height="80" as="geometry" />
        </mxCell>
        <mxCell id="u-ooSULFDvHZU3v19UTf-6" style="edgeStyle=orthogonalEdgeStyle;rounded=0;orthogonalLoop=1;jettySize=auto;html=1;exitX=0.5;exitY=1;exitDx=0;exitDy=0;entryX=0.5;entryY=0;entryDx=0;entryDy=0;" edge="1" parent="1" source="u-ooSULFDvHZU3v19UTf-2" target="u-ooSULFDvHZU3v19UTf-5">
          <mxGeometry relative="1" as="geometry" />
        </mxCell>
        <mxCell id="u-ooSULFDvHZU3v19UTf-2" value="S" style="shape=parallelogram;perimeter=parallelogramPerimeter;whiteSpace=wrap;html=1;fixedSize=1;" vertex="1" parent="1">
          <mxGeometry x="365" y="130" width="120" height="70" as="geometry" />
        </mxCell>
        <mxCell id="u-ooSULFDvHZU3v19UTf-8" style="edgeStyle=orthogonalEdgeStyle;rounded=0;orthogonalLoop=1;jettySize=auto;html=1;exitX=0.5;exitY=1;exitDx=0;exitDy=0;" edge="1" parent="1" source="u-ooSULFDvHZU3v19UTf-5" target="u-ooSULFDvHZU3v19UTf-7">
          <mxGeometry relative="1" as="geometry" />
        </mxCell>
        <mxCell id="u-ooSULFDvHZU3v19UTf-5" value="F = 0" style="rounded=0;whiteSpace=wrap;html=1;" vertex="1" parent="1">
          <mxGeometry x="365" y="240" width="120" height="60" as="geometry" />
        </mxCell>
        <mxCell id="u-ooSULFDvHZU3v19UTf-10" style="edgeStyle=orthogonalEdgeStyle;rounded=0;orthogonalLoop=1;jettySize=auto;html=1;exitX=0;exitY=0.5;exitDx=0;exitDy=0;entryX=-0.008;entryY=0.413;entryDx=0;entryDy=0;entryPerimeter=0;" edge="1" parent="1" source="u-ooSULFDvHZU3v19UTf-7" target="u-ooSULFDvHZU3v19UTf-9">
          <mxGeometry relative="1" as="geometry">
            <mxPoint x="240" y="500" as="targetPoint" />
          </mxGeometry>
        </mxCell>
        <mxCell id="u-ooSULFDvHZU3v19UTf-12" style="edgeStyle=orthogonalEdgeStyle;rounded=0;orthogonalLoop=1;jettySize=auto;html=1;exitX=1;exitY=0.5;exitDx=0;exitDy=0;" edge="1" parent="1" source="u-ooSULFDvHZU3v19UTf-7" target="u-ooSULFDvHZU3v19UTf-13">
          <mxGeometry relative="1" as="geometry">
            <mxPoint x="670" y="380" as="targetPoint" />
          </mxGeometry>
        </mxCell>
        <mxCell id="u-ooSULFDvHZU3v19UTf-7" value="S &amp;lt;= (F+1) * (F+1)" style="rhombus;whiteSpace=wrap;html=1;" vertex="1" parent="1">
          <mxGeometry x="350" y="340" width="150" height="80" as="geometry" />
        </mxCell>
        <mxCell id="u-ooSULFDvHZU3v19UTf-9" value="F" style="shape=document;whiteSpace=wrap;html=1;boundedLbl=1;" vertex="1" parent="1">
          <mxGeometry x="365" y="470" width="120" height="80" as="geometry" />
        </mxCell>
        <mxCell id="u-ooSULFDvHZU3v19UTf-11" value="TRUE" style="text;html=1;align=center;verticalAlign=middle;resizable=0;points=[];autosize=1;strokeColor=none;fillColor=none;" vertex="1" parent="1">
          <mxGeometry x="270" y="430" width="60" height="30" as="geometry" />
        </mxCell>
        <mxCell id="u-ooSULFDvHZU3v19UTf-14" style="edgeStyle=orthogonalEdgeStyle;rounded=0;orthogonalLoop=1;jettySize=auto;html=1;exitX=0.5;exitY=0;exitDx=0;exitDy=0;entryX=0.5;entryY=0;entryDx=0;entryDy=0;" edge="1" parent="1" source="u-ooSULFDvHZU3v19UTf-13" target="u-ooSULFDvHZU3v19UTf-7">
          <mxGeometry relative="1" as="geometry" />
        </mxCell>
        <mxCell id="u-ooSULFDvHZU3v19UTf-13" value="F + 1" style="rounded=0;whiteSpace=wrap;html=1;" vertex="1" parent="1">
          <mxGeometry x="610" y="350" width="120" height="60" as="geometry" />
        </mxCell>
        <mxCell id="u-ooSULFDvHZU3v19UTf-16" style="edgeStyle=orthogonalEdgeStyle;rounded=0;orthogonalLoop=1;jettySize=auto;html=1;exitX=0.5;exitY=0;exitDx=0;exitDy=0;entryX=0.492;entryY=0.825;entryDx=0;entryDy=0;entryPerimeter=0;" edge="1" parent="1" source="u-ooSULFDvHZU3v19UTf-15" target="u-ooSULFDvHZU3v19UTf-9">
          <mxGeometry relative="1" as="geometry" />
        </mxCell>
        <mxCell id="u-ooSULFDvHZU3v19UTf-15" value="END" style="ellipse;whiteSpace=wrap;html=1;aspect=fixed;" vertex="1" parent="1">
          <mxGeometry x="385" y="600" width="80" height="80" as="geometry" />
        </mxCell>
      </root>
    </mxGraphModel>
  </diagram>
</mxfile>
